<svg width="20" height="21" viewBox="0 0 20 21" fill="none" xmlns="http://www.w3.org/2000/svg">
<path d="M16.7 6.18333L11.9 2.825C10.5917 1.90833 8.58333 1.95833 7.325 2.93333L3.15 6.19167C2.31667 6.84167 1.65833 8.175 1.65833 9.225V14.975C1.65833 17.1 3.38333 18.8333 5.50833 18.8333H14.4917C16.6167 18.8333 18.3417 17.1083 18.3417 14.9833V9.33333C18.3417 8.20833 17.6167 6.825 16.7 6.18333ZM10.625 15.5C10.625 15.8417 10.3417 16.125 10 16.125C9.65833 16.125 9.375 15.8417 9.375 15.5V13C9.375 12.6583 9.65833 12.375 10 12.375C10.3417 12.375 10.625 12.6583 10.625 13V15.5Z" fill="#FF7E3A"/>
</svg>
